<svg width="94" height="89" viewBox="0 0 94 89" fill="none" xmlns="http://www.w3.org/2000/svg">
<path d="M47.0004 0C21.0462 0 0 20.4273 0 45.6266C0 65.7857 13.467 82.8885 32.1417 88.9216C34.4907 89.3439 35.353 87.9318 35.353 86.7267C35.353 85.6387 35.3094 82.0445 35.2892 78.232C22.2137 80.992 19.4546 72.8486 19.4546 72.8486C17.3165 67.5748 14.236 66.1725 14.236 66.1725C9.97167 63.3407 14.5574 63.3988 14.5574 63.3988C19.2771 63.7207 21.7622 68.1007 21.7622 68.1007C25.9542 75.076 32.7574 73.0594 35.4394 71.8936C35.8613 68.9446 37.0793 66.9318 38.4235 65.7924C27.984 64.6387 17.0099 60.7264 17.0099 43.2436C17.0099 38.2622 18.8459 34.192 21.8525 30.9968C21.3645 29.8476 19.7558 25.2069 22.3078 18.9222C22.3078 18.9222 26.2546 17.6959 35.2363 23.5991C38.9854 22.5882 43.0061 22.0812 47.0004 22.0638C50.9947 22.0812 55.0185 22.5882 58.7746 23.5991C67.7454 17.6959 71.6867 18.9222 71.6867 18.9222C74.245 25.2069 72.6355 29.8476 72.1475 30.9968C75.1611 34.192 76.9847 38.2622 76.9847 43.2436C76.9847 60.768 65.9895 64.6266 55.5236 65.7562C57.2094 67.1721 58.7116 69.9488 58.7116 74.2056C58.7116 80.3105 58.6571 85.2239 58.6571 86.7267C58.6571 87.9409 59.5031 89.3636 61.8855 88.9155C80.5501 82.8756 94 65.7788 94 45.6266C94 20.4273 72.9569 0 47.0004 0ZM17.6032 64.9961C17.4997 65.2227 17.1323 65.2907 16.7976 65.1351C16.4567 64.9863 16.2653 64.6772 16.3758 64.4498C16.477 64.2163 16.8451 64.1514 17.1852 64.3078C17.5269 64.4566 17.7215 64.7687 17.6032 64.9961ZM19.9151 66.9987C19.6909 67.2004 19.2527 67.1067 18.9554 66.7879C18.648 66.4698 18.5904 66.0444 18.8177 65.8396C19.0488 65.6379 19.4738 65.7323 19.782 66.0504C20.0894 66.3723 20.1493 66.7947 19.9151 66.9987ZM21.5011 69.5609C21.2131 69.7551 20.7423 69.573 20.4512 69.1672C20.1632 68.7615 20.1632 68.2749 20.4574 68.08C20.7493 67.8851 21.2131 68.0603 21.5081 68.4631C21.7953 68.8756 21.7953 69.3622 21.5011 69.5609ZM24.1835 72.5283C23.9258 72.8041 23.3771 72.73 22.9755 72.3538C22.5646 71.9858 22.4502 71.4637 22.7086 71.188C22.9693 70.9114 23.5211 70.9892 23.9258 71.3625C24.3337 71.7297 24.4582 72.2556 24.1835 72.5283ZM27.6501 73.5301C27.5365 73.8875 27.008 74.0499 26.4757 73.898C25.9441 73.7416 25.5962 73.3231 25.7036 72.9619C25.8141 72.6023 26.3449 72.433 26.8812 72.5955C27.412 72.7511 27.7607 73.1667 27.6501 73.5301ZM31.5954 73.955C31.6086 74.3313 31.1572 74.6433 30.5984 74.6501C30.0364 74.6622 29.5819 74.3577 29.5757 73.9875C29.5757 73.6075 30.017 73.2984 30.5789 73.2894C31.1377 73.2788 31.5954 73.581 31.5954 73.955ZM35.4711 73.8108C35.538 74.178 35.1497 74.555 34.5947 74.6555C34.0491 74.7522 33.544 74.5255 33.4747 74.1614C33.407 73.7851 33.8024 73.4081 34.3472 73.3106C34.9029 73.2169 35.4003 73.4375 35.4711 73.8108Z" fill="black"/>
</svg>
