<svg width="828" height="582" viewBox="0 0 828 582" fill="none" xmlns="http://www.w3.org/2000/svg">
<path d="M203.229 165.959C202.96 163.992 202.415 162.066 201.609 160.229C201.506 159.882 201.326 159.558 201.081 159.278C200.835 158.999 200.529 158.769 200.182 158.605C199.718 158.494 199.232 158.489 198.766 158.59L191.496 159.618C190.887 159.644 190.305 159.853 189.837 160.214C188.89 161.134 189.823 162.615 189.794 163.885C189.761 165.312 188.389 166.471 186.9 166.854C185.381 167.138 183.813 167.12 182.302 166.801L172.136 165.342C175.13 164.459 177.795 162.815 179.827 160.6C181.165 159.136 181.876 156.402 179.943 155.708C179.369 155.563 178.77 155.518 178.177 155.577C173.572 155.611 169.947 152.057 165.635 150.561C162.876 149.665 159.88 149.598 157.077 150.37C154.274 151.143 151.807 152.714 150.029 154.86L155.444 155.101C155.953 155.075 156.459 155.199 156.886 155.456C158.073 156.357 156.598 158.088 156.765 159.499C156.982 161.332 159.616 161.723 161.602 161.908C163.587 162.094 166.106 163.584 165.151 165.203C155.171 168.379 145.016 158.995 134.536 160.15C131.883 160.442 129.378 161.405 126.789 162.011C110.968 165.709 94.6129 155.841 78.4516 157.931C74.8588 158.497 71.3276 159.357 67.9 160.502C65.7005 161.17 63.4062 161.891 61.808 163.438C60.2098 164.986 59.6015 167.633 61.1156 169.251C56.9425 169.568 52.7415 169.199 48.7079 168.161C49.7986 168.721 50.706 169.543 51.3349 170.539C51.9637 171.535 52.2907 172.669 52.2817 173.822C45.7659 174.803 39.4226 176.59 33.4225 179.135C34.5423 180.855 35.8503 182.465 37.3259 183.939L29.077 188.836C31.8639 189.485 33.3048 192.996 31.6841 195.189C34.5737 194.001 36.3646 190.928 39.4546 190.305C41.479 189.897 43.5388 190.662 45.4592 191.381C47.3796 192.1 49.4904 192.797 51.4784 192.257C53.4665 191.718 54.9328 189.336 53.6696 187.819C62.1669 185.528 70.9488 184.26 79.7975 184.047C80.4802 183.968 81.1725 184.089 81.7763 184.394C82.9282 185.132 82.6251 186.727 82.5631 188.021C82.501 189.315 83.5926 191.016 84.8444 190.433C83.3717 191.613 84.6306 193.834 86.0436 195.075C87.4565 196.316 89.1594 198.028 88.2944 199.642C88.0687 200.063 87.6857 200.4 87.4685 200.825C86.8273 202.08 87.8454 203.543 89.0462 204.376C90.247 205.209 91.7178 205.791 92.5519 206.945C93.3861 208.099 93.0073 210.119 91.5157 210.28L87.2762 205.306C85.8277 206.694 84.8347 208.433 84.4123 210.321C88.908 213.716 89.5842 220.628 85.8205 224.714C83.8971 226.801 81.1619 228.07 78.7747 229.699C76.3875 231.327 74.1786 233.646 74.1846 236.388C74.195 241.124 73.7761 245.525 75.6971 249.917C79.2396 258.014 83.3294 265.898 87.9425 273.522C89.1539 275.524 90.7195 277.718 93.1736 278.063C90.0721 271.086 87.2802 264.001 84.7978 256.808C86.4146 256.814 88.2831 256.933 89.2309 258.143C90.0158 259.145 89.8472 260.508 90.091 261.724C90.4012 262.903 90.9185 264.026 91.6222 265.05L106.433 289.426C107.66 291.447 109.069 293.616 111.415 294.434C112.915 294.957 114.651 294.859 116.032 295.612C117.114 296.202 117.843 297.25 118.947 297.806C122.066 299.379 126.405 296.363 129.321 298.241C130.154 298.777 130.685 299.63 131.453 300.245C134.146 302.4 138.563 300.958 141.671 302.566C143.675 303.601 144.713 305.673 145.782 307.551C148.458 312.253 152.789 316.861 158.526 317.235C160.328 317.353 162.168 317.037 163.93 317.408C165.691 317.778 167.425 319.198 167.142 320.847C166.658 323.673 168.169 326.767 167.763 329.604C167.024 334.771 159.091 337.042 158.41 342.216C158.261 343.349 158.494 344.518 158.202 345.627C157.844 346.986 156.74 348.093 156.347 349.443C155.603 352.003 157.588 354.551 159.769 356.273C161.95 357.996 164.551 359.481 165.743 361.892C167.003 364.44 166.384 367.411 166.794 370.187C167.688 376.247 173.353 380.74 179.183 383.636C180.96 384.519 182.867 385.373 184.017 386.904C185.517 388.903 185.368 391.537 185.869 393.925C187.096 399.773 192.424 404.591 192.575 410.546C192.683 414.779 190.136 418.619 188.615 422.613C187.189 426.439 186.673 430.505 187.102 434.532C187.531 438.56 188.896 442.454 191.102 445.95C192.24 447.725 193.601 449.399 194.406 451.324C195.842 454.758 195.376 458.663 196.701 462.135C198.452 466.727 203.263 470.519 202.803 475.368C204.987 479.56 209.811 481.619 214.661 482.867L223.354 485.102C225.019 485.53 226.758 485.962 228.453 485.652C230.148 485.342 231.765 484.042 231.722 482.446C227.459 481.557 223.059 480.613 219.545 478.213C216.031 475.812 213.624 471.538 214.957 467.693C215.575 465.91 216.891 463.851 215.64 462.378C214.924 461.534 213.615 461.314 212.807 460.544C211.548 459.344 211.98 457.327 212.886 455.88C213.792 454.432 215.1 453.138 215.466 451.501C215.65 450.585 215.527 449.638 215.113 448.789C214.698 447.939 214.013 447.227 213.148 446.748C214.76 446.185 216.226 445.316 217.451 444.197C218.582 443.003 219.105 441.162 218.215 439.805C220.858 440.115 223.979 440.266 225.714 438.398C227.099 436.906 227.004 434.676 226.457 432.776C225.909 430.876 224.984 429.031 224.955 427.066C231.053 427.333 237.163 427.141 243.227 426.493C242.351 423.764 240.358 421.459 237.672 420.065C240.418 419.635 242.92 416.597 243.788 414.152C244.656 411.706 244.434 409.042 243.898 406.517C243.692 405.867 243.664 405.179 243.816 404.517C244.125 403.606 245.093 403.05 245.989 402.575L259.621 395.341C260.435 394.965 261.172 394.462 261.801 393.854C263.229 392.304 263.018 389.964 262.286 388.044C261.555 386.124 260.384 384.318 260.102 382.299C259.259 376.261 266.255 371.928 268.616 366.244C269.543 364.014 269.731 361.589 269.911 359.205C270.103 356.646 270.118 353.672 267.99 352.022C265.951 350.441 262.765 350.794 260.631 349.323C258.674 347.974 257.999 345.355 255.862 344.266C253.921 343.276 251.488 343.906 249.329 343.44C245.528 342.621 243.136 338.574 239.255 338.199C237.065 337.987 234.586 338.977 232.791 337.798C231.209 336.76 231.146 334.673 230.845 332.901C230.317 330.149 228.889 327.612 226.753 325.632C224.618 323.652 221.876 322.325 218.899 321.829C216.641 321.494 214.183 321.621 212.262 320.474C210.317 319.313 209.425 317.14 207.897 315.532C205.434 312.94 201.556 312.02 197.922 311.23L183.144 308.02C180.52 307.451 177.139 307.148 175.731 309.272C175.314 310.08 175.019 310.938 174.854 311.82C174.326 313.416 173.265 314.817 171.822 315.82C170.378 316.824 168.628 317.379 166.822 317.406C165.583 315.454 163.577 314.019 161.221 313.401C159.722 313.016 158.118 312.973 156.689 312.405C155.911 312.054 155.218 311.56 154.653 310.953C154.089 310.346 153.664 309.639 153.406 308.875C153.147 308.111 153.06 307.307 153.15 306.511C153.239 305.715 153.504 304.944 153.927 304.246C154.779 302.844 155.108 301.222 154.863 299.63C154.618 298.039 153.813 296.566 152.573 295.439C150.059 293.354 146.424 292.85 143.054 293.059C142.171 291.279 143.647 289.272 145.237 287.979C146.828 286.686 148.759 285.414 149.105 283.483C149.65 280.446 145.455 278.139 142.27 279.044C139.085 279.95 137.053 282.808 135.709 285.626C134.938 287.242 134.282 288.945 133.066 290.308C131.85 291.671 129.892 292.647 128.039 292.21C125.417 291.59 124.404 288.711 123.823 286.269C123.045 282.991 122.261 279.668 122.424 276.316C122.588 272.964 123.811 269.522 126.486 267.253C130.845 263.555 137.533 263.917 143.417 264.507C142.027 263.06 142.37 260.621 143.857 259.259C144.642 258.615 145.586 258.157 146.606 257.925C147.626 257.694 148.691 257.696 149.71 257.931C151.483 258.272 153.08 259.154 154.244 260.436C155.916 262.319 156.392 264.862 157.655 267C158.919 269.138 161.761 270.961 164.087 269.814C166.095 268.823 166.414 266.25 165.914 264.197C165.414 262.144 164.352 260.148 164.534 258.051C164.879 254.049 169.369 251.64 173.331 249.992C177.293 248.344 181.83 246.127 182.457 242.155C182.479 241.377 182.638 240.608 182.927 239.877C183.367 239.232 183.977 238.701 184.701 238.336C196.265 231.275 208.02 224.128 221.236 220.27C221.924 220.069 222.004 220.292 222.705 220.135C223.686 219.611 223.036 218.163 222.096 217.579C221.155 216.995 219.899 216.548 219.66 215.525C219.485 214.773 219.964 214.034 220.089 213.273C220.395 211.404 217.975 209.678 216.095 210.426C215.034 209.127 217.134 207.617 218.833 207.185C223.934 205.888 229.169 205.098 234.451 204.828C235.061 204.738 235.685 204.836 236.228 205.107C237.116 205.675 237.002 206.977 236.374 207.788C235.745 208.598 234.767 209.107 233.983 209.793C233.127 210.563 232.517 211.536 232.218 212.605C231.92 213.675 231.945 214.799 232.291 215.856C235.048 217.152 238.046 218.486 241.1 218.03C244.154 217.573 246.865 214.402 245.429 211.87C244.093 209.512 240.077 208.98 239.387 206.396C238.578 203.37 243.214 200.679 242.17 197.716C241.712 196.417 240.312 195.654 239.238 194.716C237.969 193.567 237.106 192.09 236.762 190.48C236.418 188.869 236.609 187.2 237.31 185.692C235.56 185.976 233.762 185.869 232.066 185.379C230.37 184.888 228.827 184.03 227.564 182.874C225.233 180.7 223.373 177.271 220.063 177.369C217.025 177.458 214.409 180.732 211.569 179.733C210.87 179.488 210.133 178.987 209.456 179.28C209.234 179.414 209.048 179.592 208.911 179.801C208.775 180.01 208.691 180.246 208.668 180.489C207.946 183.678 209.188 187.311 207.307 190.066C205.26 193.065 200.526 193.48 198.044 196.184C196.697 197.652 196.176 199.63 194.938 201.177C193.699 202.725 191.072 203.708 189.586 202.36C190.316 200.973 190.516 199.398 190.152 197.893C189.788 196.387 188.882 195.04 187.582 194.072C186.203 193.241 184.716 192.573 183.156 192.083C181.413 191.402 179.755 190.548 178.211 189.537C177.438 189.106 176.809 188.485 176.396 187.742C176.069 186.813 176.113 185.806 176.52 184.904C177.274 182.909 178.603 181.141 180.364 179.792C182.125 178.443 184.252 177.564 186.514 177.251C188.493 177.002 190.795 177.089 192.104 175.697C192.797 174.96 193.161 173.846 194.166 173.546C194.809 173.427 195.477 173.503 196.07 173.763L203.453 176.164C204.277 176.508 205.184 176.647 206.084 176.566C206.53 176.511 206.937 176.302 207.223 175.98C207.509 175.659 207.653 175.25 207.626 174.835C207.39 173.702 205.503 173.158 205.675 172.015C205.771 171.645 205.987 171.31 206.293 171.055C208.958 168.435 212.217 166.391 215.836 165.07C219.456 163.749 223.347 163.184 227.231 163.416C228.163 164.83 226.689 166.505 225.462 167.712C224.236 168.92 223.25 171.077 224.733 172.006C225.341 172.293 226.017 172.433 226.7 172.415C228.517 172.643 230.284 173.138 231.933 173.882C234.484 174.908 236.987 176.03 239.44 177.249C239.224 175.755 239.017 174.18 239.63 172.782C240.243 171.385 241.986 170.288 243.508 170.833C244.975 171.357 245.728 173.152 247.291 173.316C249.375 173.536 250.198 170.69 249.327 168.926C248.456 167.162 246.732 165.685 246.588 163.751C246.491 162.446 247.029 160.827 245.901 160.037C245.499 159.8 245.043 159.652 244.569 159.606L216.401 154.817C214.728 154.532 212.312 154.75 212.237 156.32C212.196 157.196 213.043 158.063 212.668 158.869C212.268 159.729 210.952 159.65 209.994 159.955C208.507 160.427 207.761 162.058 207.903 163.505C208.165 164.942 208.767 166.308 209.668 167.505C207.836 166.797 205.061 166.667 203.229 165.959Z" fill="#0ABDE3"/>
<path d="M180.753 143.865C178.977 143.322 177.063 143.297 175.271 143.793C173.478 144.289 171.894 145.282 170.734 146.638C170.27 147.202 169.88 147.98 170.269 148.591C170.825 149.467 172.244 149.121 173.29 148.808C174.827 148.3 176.5 148.263 178.061 148.703C179.043 149.014 179.922 149.565 180.908 149.864C181.388 150.05 181.914 150.111 182.429 150.042C182.944 149.972 183.428 149.774 183.831 149.47C184.508 148.832 184.55 147.84 184.552 146.947C184.599 146.648 184.573 146.343 184.476 146.055C184.379 145.766 184.214 145.501 183.992 145.279C183.597 145.068 183.154 144.947 182.698 144.926C181.677 144.751 180.755 144.253 180.089 143.517" fill="#0ABDE3"/>
<path d="M190.91 141.253C190.513 141.233 190.117 141.307 189.759 141.47C189.402 141.632 189.096 141.877 188.871 142.18C188.646 142.483 188.509 142.835 188.473 143.202C188.438 143.568 188.505 143.937 188.668 144.272C189.889 144.58 191.164 144.657 192.418 144.498C193.043 144.408 193.626 144.15 194.092 143.754C194.558 143.359 194.888 142.845 195.039 142.278C193.563 142.526 192.039 142.257 190.766 141.524" fill="#0ABDE3"/>
<path d="M224.988 136.889C221.665 137.541 218.438 138.554 215.372 139.907C216.817 140.42 218.046 141.349 218.877 142.556C219.707 143.763 220.097 145.185 219.987 146.612C219.857 147.159 219.872 147.728 220.03 148.269C220.384 149.06 221.407 149.357 222.307 149.56C223.923 150.015 225.611 150.214 227.299 150.149C228.143 150.108 228.964 149.873 229.685 149.466C230.407 149.059 231.007 148.491 231.431 147.816C231.676 147.174 231.963 146.548 232.291 145.939C234.447 142.904 240.854 146.573 243.169 143.64C243.985 142.607 243.91 141.052 244.973 140.233C245.523 139.877 246.161 139.652 246.828 139.579C251.484 138.725 256.188 138.106 260.917 137.725C263.158 137.545 266.079 136.802 266.097 134.723C257.657 133.192 248.905 134.28 241.203 137.818C238.428 139.102 234.758 141.804 232.085 140.101C231.084 139.463 231.133 137.747 229.756 137.03C228.347 136.297 226.483 136.595 224.988 136.889Z" fill="#0ABDE3"/>
<path d="M252.591 141.658L256.553 142.361C255.824 142.332 255.096 142.446 254.418 142.696C253.74 142.947 253.128 143.328 252.623 143.815C252.117 144.301 251.729 144.882 251.486 145.518C251.242 146.154 251.148 146.83 251.21 147.502C254.92 148.648 258.966 147.533 262.874 147.685C266.782 147.838 271.33 150.417 270.663 153.979C270.461 155.056 269.788 156.132 270.138 157.176C270.383 157.907 271.081 158.427 271.476 159.1C272.297 160.505 271.641 162.281 270.603 163.557C269.566 164.834 268.172 165.852 267.262 167.209C264.997 170.583 266.284 174.945 267.633 178.714C268.023 180.138 268.743 181.467 269.743 182.609C271.742 184.572 274.999 184.743 277.915 184.782C280.038 184.811 282.47 184.714 283.812 183.194C285.565 181.21 284.339 178.114 285.493 175.786C286.541 173.671 289.211 172.764 291.63 172.12C296.062 170.942 300.579 169.939 304.768 168.159C309.971 165.948 314.833 162.502 320.551 162.217C322.156 162.137 323.8 162.312 325.345 161.906C326.89 161.5 328.358 160.266 328.241 158.785C328.141 157.52 326.983 156.591 326.078 155.638C325.173 154.684 324.462 153.218 325.294 152.209L340.282 149.622C339.22 146.947 338.392 143.423 340.834 141.682C341.714 141.054 342.894 140.803 343.644 140.043C344.922 138.748 344.279 136.518 342.804 135.417C341.328 134.316 339.333 134.061 337.443 133.916C330.871 133.411 324.261 133.745 317.676 134.078C304.804 134.73 291.932 135.382 279.06 136.034C276.469 136.165 273.478 135.965 271.101 136.781C269.089 137.473 267.659 138.742 265.357 139.188C261.11 140.012 256.435 139.454 252.591 141.658Z" fill="#0ABDE3"/>
<path d="M323.57 170.594C323.167 170.535 322.754 170.622 322.417 170.836C322.195 171.063 322.062 171.352 322.042 171.658C321.786 173.005 322.091 174.393 322.895 175.542C323.304 176.105 323.87 176.557 324.532 176.851C325.195 177.144 325.931 177.269 326.663 177.211C328.447 177.001 329.761 175.594 331.402 174.908C333.929 173.851 344.665 172.204 337.239 168.497C334.679 167.22 333.026 168.347 331.009 169.189C328.714 170.273 326.142 170.759 323.57 170.594Z" fill="#0ABDE3"/>
<path d="M388.615 139.565C387.748 139.893 387.022 140.476 386.552 141.225C386.335 141.605 386.285 142.047 386.411 142.46C386.538 142.874 386.831 143.226 387.231 143.445C387.555 143.554 387.899 143.604 388.243 143.594L391.769 143.691C393.267 143.732 395.138 144.027 395.54 145.361C395.839 146.351 395.17 147.624 395.977 148.331C396.324 148.579 396.74 148.729 397.177 148.764C398.338 149.039 399.551 149.075 400.729 148.87C403.295 148.234 401.947 146.787 402.755 145.499C403.991 143.528 403.777 144.721 405.955 143.591C407.564 142.757 409.643 141.244 408.3 139.117C405.965 135.42 392.061 137.977 388.615 139.565Z" fill="#0ABDE3"/>
<path d="M458.207 137.706L456.159 137.959C451.542 138.528 446.899 139.103 442.453 140.384C444.378 141.087 446.397 141.545 448.455 141.745C449.589 141.796 450.714 141.944 451.818 142.186C453.782 142.726 455.761 144.121 457.658 143.407C458.835 142.964 459.219 141.832 460.193 141.232C460.866 140.818 463.419 140.147 463.704 139.729C466.011 136.35 459.98 137.488 458.207 137.706Z" fill="#0ABDE3"/>
<path d="M467.197 146.304C464.462 147.717 461.925 149.434 459.641 151.416C458.68 152.252 457.697 153.291 457.784 154.508C457.9 156.126 459.765 157.064 461.381 157.697L467.926 160.257C468.72 159.223 467.993 157.796 467.173 156.779C466.352 155.763 465.377 154.588 465.74 153.365C466.153 151.97 467.995 151.494 469.539 151.254C472.055 150.862 478.841 150.893 478.026 147.147C477.065 142.733 469.722 145 467.197 146.304Z" fill="#0ABDE3"/>
<path d="M465.881 396.109C465.258 397.776 465.198 399.739 466.276 401.194C467.486 402.827 469.906 403.436 472 403.022C474.085 402.509 475.944 401.405 477.314 399.865C478.568 398.574 479.598 397.113 480.371 395.533C481.449 393.071 482.21 390.5 482.637 387.874L484.669 378.016C485.123 375.812 485.105 369.058 480.723 371.258C479.525 371.86 476.753 376.606 475.498 377.953C473.237 380.379 472.938 382.733 471.747 385.672C470.256 389.353 467.259 392.421 465.881 396.109Z" fill="#0ABDE3"/>
<path d="M697.362 446.557C695.928 446.04 694.536 445.428 693.198 444.725C691.855 448.135 691.142 451.729 691.086 455.357L700.9 450.226C702.376 449.454 704.049 448.382 704.017 446.815C704.03 446.621 703.987 446.428 703.892 446.255C703.796 446.083 703.652 445.937 703.475 445.833C703.257 445.753 703.019 445.727 702.787 445.759C701.332 445.871 700.005 446.533 698.632 446.993C697.259 447.453 695.654 447.696 694.395 447.013" fill="#0ABDE3"/>
<path d="M749.129 449.603C748.052 449.874 747 450.223 745.982 450.647C743.73 451.705 742.198 453.716 740.171 455.111C738.232 456.445 735.898 457.178 733.606 457.89C732.932 458.441 733.242 459.549 733.973 460.033C734.76 460.447 735.662 460.634 736.565 460.571C738.946 460.62 741.454 460.641 743.54 459.579C744.715 458.874 745.814 458.068 746.823 457.171C749.262 455.291 752.19 454.051 755.088 452.852C756.143 452.484 757.119 451.945 757.969 451.261C759.79 449.603 759.918 447.045 757.292 446.481C755.17 446.025 751.149 448.999 749.129 449.603Z" fill="#0ABDE3"/>
<path d="M772.002 435.798C772.119 434.658 771.955 433.507 771.521 432.433C771.088 431.36 770.395 430.391 769.497 429.601C769.47 431.884 769.395 434.315 768.006 436.203C767.016 437.547 765.464 438.456 764.379 439.737C763.294 441.018 762.813 443.049 764.085 444.173C764.898 444.744 765.889 445.06 766.91 445.072C769.443 445.347 772.374 445.501 774.15 443.81C775.12 442.888 775.591 441.521 776.774 440.843C777.214 440.672 777.607 440.412 777.925 440.082C778.413 439.365 777.637 438.419 776.764 438.161C775.891 437.903 774.929 438.024 774.051 437.779C773.173 437.533 772.368 436.622 772.818 435.884" fill="#0ABDE3"/>
<path d="M731.349 352.112C730.021 352.41 728.645 352.485 727.288 352.333C725.033 351.95 723.278 350.38 721.458 349.092C717.131 346.048 711.871 344.35 706.434 344.242C701.488 344.156 696.496 345.394 691.639 344.53C691.956 346.161 693.467 347.385 695.078 348.112C696.69 348.839 698.469 349.205 700.088 349.917C702.682 351.069 704.739 353.047 705.882 355.487C706.404 356.611 706.732 357.836 707.522 358.818C709.137 360.825 712.198 361.266 714.899 361.102C718.421 360.888 722.099 359.952 725.376 361.165C727.883 362.092 729.677 364.119 731.769 365.695C733.862 367.272 736.81 368.441 739.213 367.304C736.717 366.557 734.545 365.093 733.013 363.125C731.481 361.156 730.67 358.787 730.699 356.363C733.056 356.563 739.845 356.486 739.479 352.785C739.169 349.649 733.373 351.773 731.349 352.112Z" fill="#0ABDE3"/>
<path d="M700.515 377.628C700.933 375.507 703.223 373.634 702.509 371.581C702.016 370.162 700.235 369.461 698.622 369.426C697.009 369.391 695.424 369.835 693.811 369.877C692.761 369.825 691.709 369.839 690.661 369.918C687.459 370.404 685.486 373.505 682.468 374.607C680.634 375.278 678.573 375.15 676.664 375.613C672.333 376.665 669.592 380.447 666.565 383.496C661.672 388.401 655.299 391.835 648.27 393.354C645.807 393.881 643.16 394.218 641.202 395.696C638.61 397.653 637.972 401.008 637.395 404.055C635.801 412.469 633.366 420.729 630.121 428.728L640.406 429.941C642.361 430.172 644.387 430.398 646.271 429.862C647.64 429.385 648.937 428.747 650.13 427.963C654.71 425.336 659.837 423.626 665.178 422.945C667.871 422.603 670.695 422.54 673.222 423.465C675.75 424.39 677.918 426.488 678.13 428.992C679.223 428.678 680.388 428.644 681.5 428.894C682.612 429.144 683.63 429.668 684.445 430.411C686.056 431.928 687.11 433.873 687.46 435.972C687.731 437.273 688.002 438.83 689.308 439.376C690.373 439.821 691.595 439.341 692.76 439.255C696.714 438.963 699.996 443.223 703.882 442.49C708.051 441.703 709.074 435.935 713.14 434.779C715.476 434.116 718.752 434.923 719.87 432.915C720.856 431.146 718.889 429.104 719.092 427.123C719.342 424.684 722.456 423.649 724.857 422.608C733.134 419.019 737.061 408.727 733.05 401.135C730.674 396.638 725.998 393.097 725.135 388.156C724.47 384.355 726.092 379.921 723.469 376.929C722.135 375.407 719.875 374.567 719.081 372.75C718.581 371.607 718.782 370.31 718.513 369.102C718.244 367.894 717.104 366.631 715.813 366.944C712.066 367.853 710.87 378.548 708.864 381.146C705.815 385.096 699.555 382.494 700.515 377.628Z" fill="#0ABDE3"/>
<path d="M631.258 356.152C629.978 355.821 628.58 355.494 627.353 355.968C626.126 356.442 625.409 358.106 626.394 358.932C634.097 358.655 641.848 358.38 649.486 359.346C658.286 360.46 666.995 363.218 675.834 362.407C670.785 361.031 665.652 359.93 660.464 359.111L651.811 357.584C649.489 357.135 647.144 356.8 644.784 356.581C639.848 356.204 636.112 357.41 631.258 356.152Z" fill="#0ABDE3"/>
<path d="M638.97 331.363C638.331 331.314 637.539 331.271 637.208 331.779C636.892 332.264 637.253 332.906 637.083 333.45C636.851 334.194 635.797 334.384 634.967 334.282C634.136 334.181 633.238 333.939 632.502 334.309C632.129 334.544 631.849 334.885 631.703 335.28C631.558 335.676 631.555 336.104 631.695 336.501C631.996 337.289 632.482 338.006 633.119 338.599C634.207 339.866 635.447 341.015 636.815 342.024C639.462 343.83 643.049 344.7 644.717 347.321C644.952 347.829 645.314 348.279 645.772 348.633C646.573 349.102 647.617 348.746 648.479 348.382L651.5 347.106C652.044 346.925 652.53 346.62 652.912 346.219C653.603 345.353 653.179 344.123 652.599 343.191C652.02 342.258 651.278 341.294 651.403 340.225C651.624 338.319 654.276 337.59 655.367 335.96C656.466 334.316 655.75 332.199 655.877 330.27C656.025 328.015 657.559 325.081 655.091 323.396C652.994 321.964 650.989 323.287 649.484 324.868C646.309 328.202 644.807 331.813 638.97 331.363Z" fill="#0ABDE3"/>
<path d="M657.309 297.665C658.341 299.49 660.491 300.579 661.616 302.356C662.835 304.282 662.696 306.771 664.019 308.638C665.376 310.554 668.106 311.571 668.867 313.749C669.698 316.128 667.813 319.019 669.316 321.097C669.596 321.437 669.95 321.719 670.354 321.926C670.758 322.133 671.205 322.26 671.665 322.299C672.126 322.338 672.59 322.289 673.028 322.153C673.467 322.018 673.87 321.8 674.213 321.513C674.846 320.876 675.185 320.035 675.157 319.17C675.13 318.305 674.738 317.484 674.064 316.883C673.175 316.133 671.897 315.809 671.154 314.934C670.767 314.429 670.51 313.849 670.401 313.238C669.996 311.477 670.061 309.651 670.59 307.918C670.788 307.478 670.839 306.993 670.734 306.526C670.4 305.628 669.084 305.565 668.16 305.148C666.062 304.202 666.113 301.466 666.479 299.335C666.235 300.754 660.767 298.341 660.194 297.538C659.057 295.942 659.676 292.863 659.451 291.099C656.995 292.192 656.048 295.434 657.309 297.665Z" fill="#0ABDE3"/>
<path d="M602.22 325.742C601.21 324.698 599.69 323.606 598.337 324.235C597.305 324.716 597.021 326.035 597.425 327.036C597.918 328.007 598.677 328.843 599.627 329.461C602.447 331.61 605.483 333.549 607.944 336.047C612.346 340.517 614.678 346.549 619.466 350.667C620.428 351.622 621.703 352.259 623.094 352.481C624.489 352.601 626.055 351.776 626.216 350.49C626.348 349.431 625.548 348.483 624.767 347.698C622.908 345.829 620.872 344.108 619.116 342.155C618.305 341.405 617.795 340.421 617.671 339.367C617.662 338.316 618.7 337.215 619.803 337.476C618.462 337.159 617.467 335.094 615.499 334.706C613.854 334.382 613.456 335.323 611.498 334.547C607.764 333.067 604.835 328.446 602.22 325.742Z" fill="#0ABDE3"/>
<path d="M689.954 224.091C688.883 223.797 687.83 223.45 686.8 223.05C684.027 222.281 680.359 224.164 680.729 226.817C680.974 228.579 682.75 229.767 683.73 231.296C685.184 233.563 684.796 236.438 684.032 238.977C683.845 239.763 683.488 240.507 682.983 241.163C682.278 241.856 681.434 242.416 680.499 242.814C676.755 244.754 673.454 247.345 670.777 250.446C670.486 250.732 670.283 251.085 670.19 251.468C670.057 252.364 671.032 253.016 671.582 253.763C672.806 255.423 671.922 257.655 672.043 259.66C672.024 259.944 672.084 260.227 672.217 260.483C672.35 260.739 672.552 260.959 672.803 261.123C673.54 261.469 674.414 260.881 674.814 260.212C676.141 257.991 675.141 254.427 677.63 253.356C678.101 253.154 678.671 253.068 678.985 252.686C679.484 252.08 679.003 251.182 679.255 250.458C679.634 249.37 681.245 249.321 682.48 249.37C684.609 249.452 686.737 249.19 688.768 248.596C689.565 248.421 690.288 248.034 690.849 247.482C691.593 246.625 691.527 245.405 691.379 244.314C690.634 238.877 688.77 233.622 685.887 228.832C688.073 229.09 690.452 229.313 692.338 228.261C693.394 227.671 694.661 225.909 694.137 224.709C693.309 222.811 691.812 224.408 689.954 224.091Z" fill="#0ABDE3"/>
<path d="M409.704 253.996C409.966 255.292 410.223 256.657 409.763 257.905C409.303 259.154 407.857 260.197 406.491 259.815C405.431 259.518 404.819 258.533 404.066 257.782C399.88 253.606 390.435 256.024 387.849 250.858C386.794 248.75 387.511 246.224 386.791 243.998C386.337 242.712 385.434 241.602 384.222 240.841C383.011 240.081 381.561 239.714 380.099 239.798C378.766 239.976 377.469 240.334 376.248 240.86C368.072 243.886 359.489 245.869 350.734 246.756C349.07 246.85 347.425 247.127 345.832 247.581C342.237 248.785 339.781 251.864 338.033 255.006C336.285 258.148 334.994 261.55 332.651 264.342C330.188 267.276 326.737 269.33 323.517 271.553C322.277 272.291 321.244 273.291 320.504 274.471C319.806 275.795 319.845 277.335 319.9 278.806L320.558 296.682C320.642 298.981 320.749 301.363 321.862 303.42C323.253 305.99 326 307.673 327.906 309.942C329.852 312.275 330.865 315.157 330.775 318.1C330.734 319.284 330.607 320.683 331.604 321.427C332.211 321.79 332.921 321.979 333.644 321.969L359.815 323.948C364.418 324.296 369.52 324.868 372.526 328.109C373.944 329.638 375.084 331.838 377.256 332.002C378.188 332.072 379.095 331.719 380.027 331.651C382.379 331.478 384.445 333.128 385.749 334.944C387.722 337.713 388.618 341.02 388.289 344.321C388.075 346.393 387.38 348.407 387.23 350.484C386.66 358.387 393.91 365.254 394.051 373.173C394.134 377.831 391.74 382.184 389.407 386.314C393.173 391.585 390.089 398.605 391.588 404.767C393.011 410.614 398.287 415.191 399.601 421.059C400.203 423.745 400.238 427.051 402.802 428.435C403.927 428.941 405.174 429.172 406.423 429.105C413.959 429.187 421.409 427.62 428.164 424.532C431.334 423.078 434.619 420.908 435.173 417.678C435.619 415.074 434.19 412.161 435.645 409.892C437.359 407.218 441.752 407.43 444.275 405.374C448.367 402.039 445.176 395.679 446.834 390.875C448.325 386.557 453.455 384.263 455.999 380.388C457 378.721 457.718 376.922 458.129 375.054C459.294 370.59 460.019 366.037 460.296 361.452C460.363 358.666 460.586 355.885 460.962 353.121C463.704 337.38 480.546 326.839 486.014 311.718C486.536 310.273 486.781 308.35 485.391 307.533C484.566 307.169 483.631 307.079 482.743 307.277L470.679 308.682C469.18 308.857 467.592 309.02 466.216 308.445C464.84 307.87 463.854 306.261 464.584 305.039C466.633 301.61 462.418 297.277 460.545 293.762C455.502 284.299 449.497 275.301 442.61 266.888C442.17 266.455 441.894 265.901 441.824 265.31L445.248 265.416C444.092 261.584 442.185 257.391 438.156 255.989C435.885 255.199 433.371 255.472 430.949 255.594C424.01 255.945 416.571 254.977 409.704 253.996Z" fill="#0ABDE3"/>
<path d="M430.954 167.642C432.77 169.423 434.804 171.312 437.431 171.623C442.071 172.171 445.407 167.738 447.531 163.887C447.61 164.869 448.1 165.783 448.897 166.436C449.695 167.089 450.736 167.429 451.8 167.384C452.946 167.206 454.039 166.811 455.011 166.224C464.204 161.582 474.501 159.123 484.978 159.066C484.877 158.333 485.074 157.591 485.53 156.984C485.987 156.377 486.67 155.948 487.449 155.779C489.579 155.389 491.498 157.091 492.525 158.858C493.553 160.626 494.193 162.674 495.826 163.997C497.458 165.32 500.619 165.263 501.264 163.347C501.883 161.508 499.809 159.939 498.086 158.855C496.363 157.77 494.547 155.763 495.707 154.163C504.51 152.362 513.367 150.555 522.374 150.197C523.907 150.247 525.435 150.004 526.862 149.483C528.236 148.86 529.328 147.446 528.958 146.074C526.993 146.501 524.934 146.378 523.045 145.719C521.156 145.061 519.522 143.898 518.351 142.378C530.849 141.425 544.142 140.612 555.218 146.046C556.547 148.682 549.773 150.876 551.585 153.254C552.163 154.012 553.322 154.101 554.325 154.118C562.022 154.25 569.763 154.38 577.373 153.306C580.154 152.914 582.963 152.36 585.756 152.678C590.406 153.208 594.384 156.075 598.959 157.01C600.821 157.39 602.909 157.403 604.479 156.402C606.049 155.402 606.724 153.123 605.437 151.822C609.745 147.921 616.895 148.888 622.578 150.755C628.261 152.623 633.645 155.635 639.66 156.051C643.973 156.35 648.346 155.278 652.608 155.959C655.287 156.387 657.779 157.488 660.397 158.165C665.348 159.444 670.585 159.174 675.725 159.235C688.841 159.399 701.813 161.78 714 166.262C715.585 166.739 717.038 167.532 718.255 168.585C719.388 169.707 719.967 171.451 719.205 172.815L706.612 171.115C707.798 173.273 710.868 173.641 713.36 174.385C715.853 175.13 718.438 177.673 716.94 179.659C714.239 178.864 711.791 181.359 710.427 183.655C709.063 185.951 707.4 188.7 704.569 188.84C702.035 188.965 698.969 186.971 697.317 188.751C699.6 191.412 701.554 194.299 703.145 197.36C704.777 200.501 705.939 204.46 703.733 207.287C703.386 207.792 702.86 208.169 702.244 208.354C700.443 208.775 699.272 206.739 697.98 205.504C696.352 203.949 693.889 203.508 691.685 202.779C689.48 202.049 687.157 200.614 686.984 198.456C686.877 197.114 687.644 195.865 688.209 194.624C689.159 192.533 689.575 190.267 689.423 188.003C689.3 186.181 688.747 184.287 687.331 183.014C685.915 181.741 683.471 181.338 681.951 182.503C681.242 183.047 680.674 183.917 679.753 183.95C678.125 184.007 676.876 181.386 675.567 182.281C675.72 183.234 675.507 184.207 674.962 185.03C671.056 188.169 665.054 186.841 660.017 187.95C657.622 188.583 655.33 189.508 653.199 190.701C652.402 191.016 651.724 191.542 651.25 192.213C650.621 193.341 651.315 194.787 652.423 195.538C653.598 196.204 654.918 196.62 656.289 196.757C662.429 197.832 668.659 199.495 673.507 203.139C678.354 206.783 681.533 212.807 679.999 218.404L667.89 207.714C668.35 212.202 668.611 216.703 668.673 221.217C668.752 222.098 668.621 222.985 668.29 223.814C667.426 225.576 665.087 226.169 663.037 226.558C662.466 226.658 661.926 226.868 661.45 227.175C660.974 227.482 660.573 227.879 660.275 228.339C659.977 228.799 659.787 229.312 659.719 229.844C659.65 230.377 659.704 230.917 659.878 231.429C660.606 233.622 662.423 235.333 664.086 237.037C665.749 238.741 667.385 240.678 667.603 242.964C667.82 245.25 665.954 247.826 663.477 247.667C661.598 247.547 660.205 245.993 659.404 244.419C658.603 242.845 658.126 241.091 656.922 239.754C653.279 235.705 645.096 237.44 641.832 233.124C641.001 233.996 640.424 235.05 640.157 236.186C639.889 237.321 639.941 238.502 640.306 239.614C641.824 238.736 643.903 239.552 645.044 240.828C646.185 242.104 646.723 243.74 647.619 245.173C648.828 247.107 650.751 248.822 650.92 251.05C650.875 251.892 650.891 252.736 650.966 253.577C651.266 254.927 652.501 255.896 653.357 257.025C655.349 259.65 655.251 263.257 653.967 266.236C652.683 269.215 650.376 271.704 648.091 274.118C644.1 278.333 640.027 282.524 635.295 286.024C633.945 287.023 632.504 288.005 631.663 289.402C630.822 290.798 630.779 292.758 632.072 293.821C631.147 293.863 629.489 294.284 628.564 294.326C628.239 290.899 628.168 287.456 628.353 284.02C624.704 282.401 620.775 286.736 621.246 290.451C621.717 294.165 624.625 297.146 626.695 300.359C628.209 302.709 629.334 305.45 628.828 308.144C628.323 310.839 625.72 313.325 622.771 313.087C618.081 312.709 616.119 306.488 611.474 305.776C611.065 305.687 610.635 305.726 610.252 305.888C609.563 306.238 609.443 307.09 609.404 307.816C609.214 311.378 609.05 315.081 610.555 318.366C612.756 323.17 618.444 327.205 617.251 332.305C610.824 329.545 607.482 322.885 605.965 316.488C604.447 310.091 604.194 303.375 601.475 297.328C599.409 299.774 595.069 297.752 593.182 295.186C591.393 292.753 590.291 289.94 588.556 287.474C586.82 285.009 584.161 282.802 580.982 282.666C577.648 282.524 574.757 284.638 572.214 286.635C570.124 288.277 567.977 289.984 566.755 292.254C564.976 295.558 565.442 299.452 565.356 303.141C565.263 307.129 564.349 311.337 561.407 314.256C558.465 317.176 553.036 318.192 549.791 315.561C548.097 314.188 547.277 312.135 546.546 310.165C543.025 300.669 540.092 290.995 537.762 281.19C537.217 283.428 535.09 286.313 533.058 284.994C532.603 284.64 532.233 284.2 531.975 283.704C528.185 277.77 521.167 274.21 514.076 272.075C506.985 269.941 499.524 268.945 492.512 266.6C488.582 265.284 484.829 263.557 481.325 261.451C480.432 262.663 479.911 264.076 479.816 265.54C479.722 267.004 480.057 268.464 480.788 269.766C482.343 272.311 485.863 273.784 488.876 272.894C490.433 272.434 491.748 271.436 493.293 270.942C494.838 270.449 496.912 270.691 497.588 272.067C498.234 273.383 497.257 274.976 497.742 276.35C498.48 278.443 501.897 278.605 503.092 280.51C503.981 281.927 503.25 283.809 501.98 284.953C500.711 286.097 499.017 286.724 497.468 287.52C492.44 290.104 488.864 294.513 484.47 297.944C480.076 301.375 473.877 303.88 468.64 301.68C469.888 295.839 462.359 291.552 460.974 285.738C460.518 283.824 460.754 281.792 460.103 279.927C459.161 277.227 456.569 275.37 454.442 273.324C451.862 270.816 449.853 267.855 448.531 264.617C447.21 261.379 446.605 257.93 446.75 254.472C446.865 252.069 447.342 249.627 446.75 247.285C446.157 244.943 444.059 242.677 441.458 242.783C435.519 243.025 428.036 243.433 424.92 238.755C423.808 237.085 423.324 234.64 424.932 233.361C426.066 232.458 427.741 232.543 429.231 232.679L442.613 233.895C445.743 234.18 449.126 234.414 451.812 232.903C454.498 231.391 455.662 227.377 453.175 225.599C451.358 224.299 448.102 224.369 447.574 222.303C447.134 220.582 449.196 218.629 448.082 217.191C447.284 216.16 445.489 216.446 444.401 217.219C443.313 217.992 442.524 219.123 441.307 219.708C439.171 220.735 436.62 219.758 434.322 219.093C432.025 218.429 428.945 218.373 427.831 220.344C426.584 222.549 428.936 225.439 427.699 227.648C426.064 230.569 420.526 228.906 418.23 231.419C415.594 234.302 420.023 238.602 419.134 242.285C418 242.805 416.739 243.043 415.474 242.977C414.21 242.912 412.986 242.544 411.922 241.911C410.875 241.253 410.04 240.345 409.507 239.284C408.974 238.223 408.762 237.048 408.894 235.884C409.114 234.227 410.049 232.536 409.423 230.97C408.916 229.704 407.54 228.95 406.262 228.297L393.257 221.657C392.05 223.727 393.576 226.292 395.485 227.847C397.394 229.401 399.785 230.572 401.039 232.618C401.833 234.035 402.011 235.678 401.537 237.213C401.063 238.747 399.973 240.057 398.489 240.873C398.303 240.992 398.092 241.072 397.869 241.108C397.647 241.144 397.418 241.135 397.2 241.081C396.993 240.969 396.812 240.819 396.668 240.64C396.524 240.462 396.421 240.258 396.364 240.042C394.069 234.617 390.624 229.268 385.117 226.433C379.609 223.599 371.695 224.182 368.083 228.956C367.225 230.09 366.649 231.383 365.902 232.582C361.931 238.952 353.419 241.968 345.467 241.771C344.689 241.811 343.915 241.643 343.238 241.287C341.952 240.467 342.01 238.726 342.207 237.295L343.042 231.218C343.209 229.998 343.452 228.65 344.497 227.888C345.971 226.814 348.096 227.492 349.972 227.467C351.394 227.406 352.76 226.942 353.887 226.138C355.013 225.335 355.845 224.231 356.27 222.976C356.649 221.709 356.646 220.37 356.263 219.104C355.879 217.838 355.129 216.693 354.093 215.792C353.233 215.045 352.079 214.108 352.533 213.102C352.714 212.824 352.959 212.585 353.251 212.404C353.542 212.222 353.873 212.102 354.221 212.052C357.591 211.148 361.152 210.91 364.466 209.844C367.78 208.777 370.993 206.594 371.778 203.433C372.019 202.465 372.128 201.291 373.07 200.811C373.542 200.627 374.05 200.531 374.562 200.529C376.359 200.293 377.995 199.444 379.148 198.149C380.301 196.855 380.888 195.208 380.792 193.533C382.381 192.508 384.606 193.262 386.142 194.353C387.679 195.444 389.035 196.884 390.905 197.355C394.389 198.231 397.756 195.38 401.366 195.367C402.885 195.362 404.457 195.858 405.885 195.382C407.333 194.9 408.198 193.568 409.31 192.584C410.421 191.6 412.371 191 413.398 192.06L412.524 186.078C414.284 186.489 416.119 186.547 417.905 186.249C419.691 185.951 421.388 185.303 422.881 184.348L411.586 180.822C411.192 180.731 410.83 180.552 410.53 180.3C409.708 179.483 410.524 178.21 411.192 177.281C412.789 175.06 413.057 171.4 410.43 170.294C408.637 169.539 406.579 170.445 404.858 171.332L396.614 175.579C396.352 177.027 398.268 177.847 399.456 178.822C400.174 179.413 400.683 180.19 400.915 181.052C401.146 181.914 401.09 182.82 400.754 183.652C400.418 184.484 399.818 185.203 399.031 185.714C398.245 186.225 397.31 186.504 396.349 186.515C396.892 187.167 397.269 187.924 397.452 188.729C397.636 189.534 397.621 190.367 397.409 191.166L391.862 191.534C391.24 191.65 390.593 191.533 390.063 191.21C389.47 190.723 389.55 189.87 389.413 189.148C389.081 187.405 387.234 186.184 385.35 185.871C383.465 185.558 381.537 185.959 379.67 186.355C378.878 186.619 378.007 186.6 377.229 186.303C376.783 186.035 376.443 185.64 376.263 185.177C375.445 183.344 376.21 181.189 377.524 179.622C378.838 178.054 380.637 176.908 382.253 175.603C386.116 172.471 388.955 168.402 390.448 163.858C393.502 162.676 396.663 161.069 399.717 159.887C404.424 157.685 409.703 156.74 414.961 157.158L425.301 157.341C428.363 157.395 431.507 157.464 434.338 158.543C437.169 159.621 439.657 161.954 439.852 164.777C439.911 165.097 439.882 165.425 439.766 165.731C439.65 166.037 439.451 166.311 439.189 166.527C438.79 166.728 438.337 166.823 437.882 166.799C435.027 166.892 433.809 167.549 430.954 167.642Z" fill="#0ABDE3"/>
<path d="M348.53 197.587C348.934 197.233 349.225 196.784 349.371 196.288C349.516 195.792 349.511 195.268 349.356 194.775C348.373 194.424 347.303 194.334 346.268 194.515C345.232 194.695 344.272 195.14 343.495 195.797C342.882 196.37 342.354 197.015 341.925 197.715C340.566 199.763 339.364 202.21 340.151 204.5C340.216 204.75 340.333 204.985 340.497 205.192C340.661 205.399 340.868 205.574 341.106 205.706C341.459 205.837 341.84 205.892 342.219 205.867C343.716 205.866 345.211 205.781 346.697 205.613C347.61 205.51 348.669 205.272 349.022 204.487C349.486 203.456 348.364 202.289 348.691 201.214C348.906 200.734 349.232 200.302 349.646 199.95C349.852 199.773 350.01 199.553 350.108 199.31C350.205 199.066 350.24 198.805 350.21 198.547C350.078 198.042 349.242 197.756 348.941 198.194" fill="#0ABDE3"/>
<path d="M356.293 188.288C354.963 188.006 353.592 187.926 352.234 188.053C351.934 188.044 351.637 188.107 351.37 188.234C351.111 188.41 350.924 188.661 350.837 188.947C350.55 189.797 350.621 190.716 351.034 191.521C351.448 192.325 352.174 192.956 353.069 193.288C353.556 193.392 354.023 193.565 354.453 193.802C355.601 194.625 354.869 196.307 355.086 197.634C355.33 199.124 356.892 200.375 356.605 201.859C356.38 203.028 355.028 203.953 355.246 205.124C355.474 206.35 357.157 206.718 358.499 206.816C359.277 206.942 360.077 206.857 360.804 206.572C361.532 206.112 362.05 205.419 362.258 204.626C362.807 203.115 363.038 201.521 362.938 199.93C362.932 199.206 362.735 198.495 362.365 197.857C361.961 197.352 361.513 196.878 361.026 196.44C358.455 193.677 361.162 189.556 356.293 188.288Z" fill="#0ABDE3"/>
<path opacity="0.8" d="M664.471 308.636C664.471 308.636 634.671 262.395 549.903 282.182C549.903 282.182 343.289 368.404 249.284 350.768C249.284 350.768 154.3 308.636 90.6512 231.232" stroke="#2E86DE" stroke-width="2" stroke-miterlimit="10"/>
<path opacity="0.8" d="M665.45 309.616C514.057 124.113 90.6512 228.293 90.6512 228.293C295.307 302.758 556.757 281.202 556.757 281.202C556.757 281.202 446.106 272.384 350.143 199.164" stroke="#2E86DE" stroke-width="2" stroke-miterlimit="10"/>
<path d="M86.5471 237.374C91.3109 237.374 95.1727 233.806 95.1727 229.404C95.1727 225.003 91.3109 221.434 86.5471 221.434C81.7833 221.434 77.9215 225.003 77.9215 229.404C77.9215 233.806 81.7833 237.374 86.5471 237.374Z" fill="#2E86DE"/>
<path d="M249.097 356.909C253.861 356.909 257.722 353.341 257.722 348.939C257.722 344.538 253.861 340.97 249.097 340.97C244.333 340.97 240.471 344.538 240.471 348.939C240.471 353.341 244.333 356.909 249.097 356.909Z" fill="#2E86DE"/>
<path d="M550.695 290.283C555.459 290.283 559.32 286.715 559.32 282.313C559.32 277.912 555.459 274.343 550.695 274.343C545.931 274.343 542.069 277.912 542.069 282.313C542.069 286.715 545.931 290.283 550.695 290.283Z" fill="#2E86DE"/>
<path d="M666.242 315.758C671.006 315.758 674.868 312.19 674.868 307.788C674.868 303.386 671.006 299.818 666.242 299.818C661.478 299.818 657.617 303.386 657.617 307.788C657.617 312.19 661.478 315.758 666.242 315.758Z" fill="#2E86DE"/>
<path d="M348.977 206.02C353.74 206.02 357.602 202.452 357.602 198.051C357.602 193.649 353.74 190.081 348.977 190.081C344.213 190.081 340.351 193.649 340.351 198.051C340.351 202.452 344.213 206.02 348.977 206.02Z" fill="#2E86DE"/>
</svg>
